#N canvas 896 314 480 488 10;
#X obj 24 259 pack 0 0 0, f 11;
#X obj 217 393 + 5;
#X obj 217 371 * 2000;
#X obj 319 200 s tone;
#X obj 218 245 s mod;
#X obj 218 225 * 4;
#X obj 217 413 s decay;
#X text 19 52 Fender Rhodes style voice using rjdj rhodey abstraction \, which is itself based on the STK Rhodey code;
#X obj 24 235 poly 8 1, f 11;
#X obj 218 205 f;
#X obj 217 351 f;
#X obj 24 162 notein;
#X obj 24 187 stripnote;
#X obj 24 214 pack f f;
#X obj 24 280 clone -s 1 voice 8;
#X obj 24 301 hip~ 5;
#X obj 22 330 dac~;
#X obj 319 160 ctlin 93;
#X obj 218 161 ctlin 23;
#X obj 217 308 ctlin 94;
#X obj 319 180 / 127;
#X obj 218 183 / 127;
#X obj 217 329 / 127;
#X text 15 21 basic polyphonic patch with 8 voices;
#X text 19 96 Adapted from Organelle implementation for Bela by Daniel Villegas 2025;
#X obj 321 307 ctlin 83;
#X obj 320 431 s vib-freq;
#X obj 320 391 ctlin 10;
#X floatatom 391 326 5 0 0 0 - - - 0;
#X obj 321 347 s vib-depth;
#X connect 0 0 14 0;
#X connect 1 0 6 0;
#X connect 2 0 1 0;
#X connect 5 0 4 0;
#X connect 8 0 0 0;
#X connect 8 1 0 1;
#X connect 8 2 0 2;
#X connect 9 0 5 0;
#X connect 10 0 2 0;
#X connect 11 0 12 0;
#X connect 11 1 12 1;
#X connect 12 0 13 0;
#X connect 12 1 13 1;
#X connect 13 0 8 0;
#X connect 14 0 15 0;
#X connect 15 0 16 0;
#X connect 15 0 16 1;
#X connect 17 0 20 0;
#X connect 18 0 21 0;
#X connect 19 0 22 0;
#X connect 20 0 3 0;
#X connect 21 0 9 0;
#X connect 22 0 10 0;
#X connect 25 0 28 0;
#X connect 25 0 29 0;
#X connect 27 0 26 0;
