#N canvas 357 85 480 488 10;
#X obj 99 321 pack 0 0 0, f 11;
#X obj 258 375 + 5;
#X obj 258 353 * 2000;
#X obj 317 221 s tone;
#X obj 259 264 s mod;
#X obj 259 244 * 4;
#X obj 258 395 s decay;
#X text 19 52 Fender Rhodes style voice using rjdj rhodey abstraction \, which is itself based on the STK Rhodey code;
#X text 15 21 basic polyphonic patch with 8 voices and sequencer;
#X obj 99 297 poly 8 1, f 11;
#X obj 259 224 f;
#X obj 258 333 f;
#X obj 99 224 notein;
#X obj 99 249 stripnote;
#X obj 99 276 pack f f;
#X obj 99 342 clone -s 1 voice 8;
#X obj 99 363 hip~ 5;
#X obj 97 392 dac~;
#X obj 317 181 ctlin 93;
#X obj 259 180 ctlin 23;
#X obj 258 290 ctlin 94;
#X text 20 96 Adapted from Organelle implenentation for Bela by Daniel Villegas 2025;
#X obj 317 201 / 127;
#X obj 259 202 / 127;
#X obj 258 311 / 127;
#X connect 0 0 15 0;
#X connect 1 0 6 0;
#X connect 2 0 1 0;
#X connect 5 0 4 0;
#X connect 9 0 0 0;
#X connect 9 1 0 1;
#X connect 9 2 0 2;
#X connect 10 0 5 0;
#X connect 11 0 2 0;
#X connect 12 0 13 0;
#X connect 12 1 13 1;
#X connect 13 0 14 0;
#X connect 13 1 14 1;
#X connect 14 0 9 0;
#X connect 15 0 16 0;
#X connect 16 0 17 0;
#X connect 16 0 17 1;
#X connect 18 0 22 0;
#X connect 19 0 23 0;
#X connect 20 0 24 0;
#X connect 22 0 3 0;
#X connect 23 0 10 0;
#X connect 24 0 11 0;
